<mxfile host="app.diagrams.net" modified="2020-09-23T16:23:39.161Z" agent="5.0 (Windows NT 10.0; Win64; x64) AppleWebKit/537.36 (KHTML, like Gecko) Chrome/85.0.4183.121 Safari/537.36" etag="AlPG6KhOvgXq_zxrOo5Z" version="13.7.4" type="github">
  <diagram id="TFLiWeViwAiS0tccqEfQ" name="Page-1">
    <mxGraphModel dx="1038" dy="499" grid="1" gridSize="10" guides="1" tooltips="1" connect="1" arrows="1" fold="1" page="1" pageScale="1" pageWidth="850" pageHeight="1100" math="0" shadow="0">
      <root>
        <mxCell id="0" />
        <mxCell id="1" parent="0" />
        <mxCell id="0FYFMEODMGLwq3KR3_-t-1" value="&lt;font size=&quot;1&quot;&gt;ENVÍOS A TODO EL PAÍS&lt;/font&gt;" style="rounded=0;whiteSpace=wrap;html=1;" vertex="1" parent="1">
          <mxGeometry width="920" height="30" as="geometry" />
        </mxCell>
        <mxCell id="0FYFMEODMGLwq3KR3_-t-2" value="&lt;font color=&quot;#ffffff&quot;&gt;W I L D C A R D&lt;/font&gt;" style="rounded=0;whiteSpace=wrap;html=1;fillColor=#000000;fontSize=21;" vertex="1" parent="1">
          <mxGeometry y="30" width="920" height="70" as="geometry" />
        </mxCell>
        <mxCell id="0FYFMEODMGLwq3KR3_-t-6" value="&amp;nbsp; &amp;nbsp; &amp;nbsp; &amp;nbsp; &amp;nbsp; &amp;nbsp; &amp;nbsp; &amp;nbsp; &amp;nbsp; &amp;nbsp; &amp;nbsp; &amp;nbsp; &amp;nbsp; &amp;nbsp; &amp;nbsp; &amp;nbsp; &amp;nbsp; &amp;nbsp; &amp;nbsp; &amp;nbsp; &amp;nbsp; &amp;nbsp; &amp;nbsp; &amp;nbsp; &amp;nbsp; &amp;nbsp; &amp;nbsp; &amp;nbsp; &amp;nbsp; &amp;nbsp; &amp;nbsp; &amp;nbsp; &amp;nbsp; &amp;nbsp; &amp;nbsp; &amp;nbsp; &amp;nbsp; &amp;nbsp; &amp;nbsp; &amp;nbsp; &amp;nbsp; &amp;nbsp; &amp;nbsp; &amp;nbsp; &amp;nbsp; &amp;nbsp; &amp;nbsp; &amp;nbsp; &amp;nbsp; &amp;nbsp; &amp;nbsp; &amp;nbsp; &amp;nbsp; &amp;nbsp; &amp;nbsp; &amp;nbsp; &amp;nbsp; &amp;nbsp; &amp;nbsp; &amp;nbsp; &amp;nbsp; &amp;nbsp; &amp;nbsp; &amp;nbsp; &amp;nbsp; &amp;nbsp; &amp;nbsp;&lt;font size=&quot;1&quot;&gt;Crear cuenta&amp;nbsp; |&amp;nbsp; Iniciar sesión&amp;nbsp; &amp;nbsp; &amp;nbsp;&lt;/font&gt;" style="rounded=0;whiteSpace=wrap;html=1;fillColor=#FFFFFF;fontSize=19;align=left;" vertex="1" parent="1">
          <mxGeometry y="100" width="920" height="40" as="geometry" />
        </mxCell>
        <mxCell id="0FYFMEODMGLwq3KR3_-t-9" value="&amp;nbsp; &lt;span style=&quot;font-weight: normal&quot;&gt;Buscar&lt;/span&gt;" style="rounded=0;whiteSpace=wrap;html=1;fillColor=#FFFFFF;fontSize=10;align=left;fontStyle=1" vertex="1" parent="1">
          <mxGeometry x="10" y="105" width="270" height="30" as="geometry" />
        </mxCell>
      </root>
    </mxGraphModel>
  </diagram>
</mxfile>
